<svg width="150" height="150" viewBox="0 0 150 150" fill="none" xmlns="http://www.w3.org/2000/svg">
<path fill-rule="evenodd" clip-rule="evenodd" d="M75 150C97.0716 150 116.916 140.466 130.641 125.291L88.9767 96.9437L46.3085 144.316C55.1468 147.979 64.8374 150 75 150ZM94.1336 91.2183L135.446 119.408C144.595 106.976 150 91.6192 150 75C150 33.5786 116.421 0 75 0C33.5786 0 0 33.5786 0 75C0 93.1022 6.41325 109.707 17.0916 122.665L17.25 122.25L47.3895 91.2183H94.1333L94.1334 91.2181L94.1336 91.2183ZM20.782 47.473L27.1818 67.5903H27.4274L33.8402 47.473H40.046L30.9182 73.9513H23.7039L14.5632 47.473H20.782ZM43.233 73.9513V47.473H61.0749V52.0886H48.8312V58.3979H60.1569V63.0135H48.8312V69.3357H61.1266V73.9513H43.233ZM87.6728 73.9513V47.473H82.1005V64.1254H81.8678L70.4386 47.473H65.5256V73.9513H71.1239V57.286H71.3178L82.8374 73.9513H87.6728ZM108.653 47.473H114.251V64.6684C114.251 66.5991 113.79 68.2885 112.868 69.7365C111.954 71.1846 110.674 72.3137 109.028 73.1239C107.382 73.9255 105.464 74.3263 103.275 74.3263C101.077 74.3263 99.1548 73.9255 97.5085 73.1239C95.8622 72.3137 94.5823 71.1846 93.6686 69.7365C92.755 68.2885 92.2981 66.5991 92.2981 64.6684V47.473H97.8964V64.19C97.8964 65.1985 98.1162 66.0949 98.5557 66.8792C99.0039 67.6636 99.6331 68.2799 100.443 68.7281C101.254 69.1763 102.197 69.4004 103.275 69.4004C104.361 69.4004 105.305 69.1763 106.106 68.7281C106.916 68.2799 107.541 67.6636 107.981 66.8792C108.429 66.0949 108.653 65.1985 108.653 64.19V47.473ZM118.857 47.473V73.9513H136.751V69.3357H124.456V63.0135H135.781V58.3979H124.456V52.0886H136.699V47.473H118.857Z" fill="#0028B5"/>
</svg>
