<svg width="0" height="0" class="hidden">
  <symbol version="1.1" id="arrow" xmlns="http://www.w3.org/2000/svg" xmlns:xlink="http://www.w3.org/1999/xlink" x="0px" y="0px" xml:space="preserve" viewBox="0 0 24.7 18.6">
    <path d="M24.4,8.6L24.4,8.6C24,8.1,16.6,0.5,16,0.2C15.9,0.1,15.7,0,15.6,0l0,0C15,0,14.5,0.4,14.4,1c0,0.3,0,0.5,0.2,0.7l0,0
	c1.3,1.5,4.8,4.7,6.7,6.6H1.6c-0.4,0-0.9-0.1-1.2,0.2l0,0c-0.5,0.4-0.5,1.1-0.1,1.6c0.1,0.2,0.3,0.3,0.5,0.3l0,0
	c2,0.1,14.2,0,20.5-0.1c-1.4,1.3-5.5,5.4-6.5,6.4c-0.4,0.3-0.5,1-0.2,1.4c0.3,0.5,0.9,0.6,1.3,0.3c0.1-0.1,0.2-0.1,0.3-0.2
	c1.3-1.3,6.9-6.8,8.3-8.3l0.1-0.2C24.8,9.3,24.7,8.9,24.4,8.6z"></path>
  </symbol>
  <symbol xmlns="http://www.w3.org/2000/svg" fill="currentColor" viewBox="0 0 16 16" id="check-circle-fill">
    <path d="M16 8A8 8 0 1 1 0 8a8 8 0 0 1 16 0zm-3.97-3.03a.75.75 0 0 0-1.08.022L7.477 9.417 5.384 7.323a.75.75 0 0 0-1.06 1.06L6.97 11.03a.75.75 0 0 0 1.079-.02l3.992-4.99a.75.75 0 0 0-.01-1.05z"></path>
  </symbol>
  <symbol xmlns="http://www.w3.org/2000/svg" fill="currentColor" viewBox="0 0 16 16" id="check-circle">
    <path d="M8 15A7 7 0 1 1 8 1a7 7 0 0 1 0 14zm0 1A8 8 0 1 0 8 0a8 8 0 0 0 0 16z"></path>
    <path d="M10.97 4.97a.235.235 0 0 0-.02.022L7.477 9.417 5.384 7.323a.75.75 0 0 0-1.06 1.06L6.97 11.03a.75.75 0 0 0 1.079-.02l3.992-4.99a.75.75 0 0 0-1.071-1.05z"></path>
  </symbol>
  <symbol xmlns="http://www.w3.org/2000/svg" fill="currentColor" viewBox="0 0 16 16" id="check-square">
    <path d="M3 14.5A1.5 1.5 0 0 1 1.5 13V3A1.5 1.5 0 0 1 3 1.5h8a.5.5 0 0 1 0 1H3a.5.5 0 0 0-.5.5v10a.5.5 0 0 0 .5.5h10a.5.5 0 0 0 .5-.5V8a.5.5 0 0 1 1 0v5a1.5 1.5 0 0 1-1.5 1.5H3z"></path>
    <path d="m8.354 10.354 7-7a.5.5 0 0 0-.708-.708L8 9.293 5.354 6.646a.5.5 0 1 0-.708.708l3 3a.5.5 0 0 0 .708 0z"></path>
  </symbol>
  <symbol xmlns="http://www.w3.org/2000/svg" fill="currentColor" viewBox="0 0 16 16" id="heart">
    <path fill-rule="evenodd" d="M8 1.314C12.438-3.248 23.534 4.735 8 15-7.534 4.736 3.562-3.248 8 1.314z"></path>
  </symbol>
  <symbol id="icon-form" xmlns="http://www.w3.org/2000/svg" viewBox="0 0 76 76">
    <rect id="Area" width="76" height="76" rx="38" fill="#3c3c3c"></rect>
    <g id="Icon" transform="translate(22 22)">
      <rect id="Area-2" width="32" height="32" fill="#fff" opacity="0"></rect>
      <g id="Icon-2" transform="translate(2.21 4.123)">
        <rect id="Rect" width="26.667" height="18.667" rx="2" transform="translate(0.457 -0.123)" fill="none" stroke="#fcfcfc" stroke-linecap="round" stroke-linejoin="round" stroke-width="2.667"></rect>
        <line id="Line" x2="10.667" transform="translate(8.457 23.877)" fill="none" stroke="#fcfcfc" stroke-linecap="round" stroke-linejoin="round" stroke-width="2.667"></line>
        <line id="Line-2" y2="5.333" transform="translate(13.79 18.544)" fill="none" stroke="#fcfcfc" stroke-linecap="round" stroke-linejoin="round" stroke-width="2.667"></line>
      </g>
    </g>
  </symbol>
  <symbol id="icon-mail" xmlns="http://www.w3.org/2000/svg" viewBox="0 0 76 76">
    <rect id="Area" width="76" height="76" rx="38" fill="#3c3c3c"></rect>
    <g id="Icon" transform="translate(22 22)">
      <rect id="Area-2" width="32" height="32" fill="#fff" opacity="0"></rect>
      <g id="Icon-2" transform="translate(2.21 4.123)">
        <path id="Path" d="M5.333,5.333H26.667A2.674,2.674,0,0,1,29.333,8V24a2.674,2.674,0,0,1-2.666,2.667H5.333A2.674,2.674,0,0,1,2.667,24V8A2.674,2.674,0,0,1,5.333,5.333Z" transform="translate(-2.21 -4.123)" fill="none" stroke="#fcfcfc" stroke-linecap="round" stroke-linejoin="round" stroke-width="2.667"></path>
        <path id="Path-2" d="M29.333,8,16,17.333,2.667,8" transform="translate(-2.21 -4.123)" fill="none" stroke="#fcfcfc" stroke-linecap="round" stroke-linejoin="round" stroke-width="2.667"></path>
      </g>
    </g>
  </symbol>
  <symbol id="icon-phone" xmlns="http://www.w3.org/2000/svg" viewBox="0 0 76 76">
    <rect id="Area" width="76" height="76" rx="38" fill="#3c3c3c"></rect>
    <g id="Icon" transform="translate(22 22)">
      <rect id="Area-2" width="32" height="32" fill="#fff" opacity="0"></rect>
      <g id="Icon-2" transform="translate(2.21 4.123)">
        <path id="Path" d="M29.333,22.56v4a2.667,2.667,0,0,1-2.906,2.667A26.386,26.386,0,0,1,14.92,25.133a25.988,25.988,0,0,1-8-8A26.378,26.378,0,0,1,2.827,5.573,2.665,2.665,0,0,1,5.48,2.667h4A2.667,2.667,0,0,1,12.147,4.96a17.1,17.1,0,0,0,.933,3.747,2.667,2.667,0,0,1-.6,2.813l-1.693,1.693a21.333,21.333,0,0,0,8,8L20.48,19.52a2.667,2.667,0,0,1,2.813-.6,17.1,17.1,0,0,0,3.747.933A2.666,2.666,0,0,1,29.333,22.56Z" transform="translate(-2.21 -4.123)" fill="none" stroke="#fcfcfc" stroke-linecap="round" stroke-linejoin="round" stroke-width="2.667"></path>
      </g>
    </g>
  </symbol>
  <symbol version="1.2" baseProfile="tiny" id="logo-icon" xmlns="http://www.w3.org/2000/svg" xmlns:xlink="http://www.w3.org/1999/xlink" x="0px" y="0px" overflow="visible" xml:space="preserve" viewBox="0 0 113.4 113.4">
    <g>
      <path stroke-width="0.1084" stroke-miterlimit="3.8637" d="M20.5,17.5V69
		c0,16.7,17.8,16.7,17.8,16.7h26.2V73.1H44.9c-2.9,0-3-2.9-3-2.9V0C20.5,0,20.5,17.5,20.5,17.5L20.5,17.5z"></path>
      <path stroke-width="0.1084" stroke-miterlimit="3.8637" d="M92.9,95.9V47.4
		c0-16.7-17.8-16.7-17.8-16.7H48.9v12.6h19.6c2.9,0,3,2.9,3,2.9v67.2C92.9,113.4,92.9,95.9,92.9,95.9L92.9,95.9z"></path>
    </g>
  </symbol>
  <symbol xmlns="http://www.w3.org/2000/svg" xmlns:xlink="http://www.w3.org/1999/xlink" id="logo">
    <path fill-rule="evenodd" clip-rule="evenodd" d="M30.4548 193.001L37.1824 176.749C33.4029 177.165 24.0674 177.391 21.6107 175.615C18.3982 173.196 19.4186 165.902 19.4186 161.291V80.5599C19.4186 73.6812 18.3226 71.1867 23.5383 68.0875L43.91 55.4638C50.7131 51.0796 57.6296 47.0355 64.4706 42.689C71.1226 38.3048 78.0391 34.1851 84.8422 29.9898C88.2816 27.8733 91.5698 25.7945 95.1226 23.6024C100.414 20.352 101.17 19.4071 106.99 23.0355C120.634 31.615 134.089 39.8544 147.809 48.3583L178.461 67.4449C184.017 70.9977 183.601 70.9221 183.601 78.8591V159.59C183.601 163.634 184.357 172.062 182.241 174.708C179.784 177.769 172.301 176.824 167.425 176.824H154.952C154.272 176.824 153.516 176.9 152.836 176.9C150.644 176.9 150.984 176.56 150.644 176.182C150.644 176.258 150.568 176.258 150.568 176.409L147.356 184.572C146.335 187.18 144.748 190.393 143.992 193.001C158.316 192.85 172.716 193.001 187.003 193.001C194.071 193.001 201.97 194.626 202.423 187.029C202.764 180.377 202.423 172.969 202.423 166.166C202.423 138.5 202.423 110.834 202.423 83.1678C202.423 62.3048 204.2 64.7993 195.431 59.13L110.732 4.85596C99.6202 -2.24955 103.249 -2.17396 83.4438 10.4497C74.7887 16.0434 66.2848 21.5237 57.4407 27.1174C40.0926 38.267 22.9336 49.3032 5.58555 60.3772C3.24225 61.9268 1.05012 62.7205 0.634373 65.7819C0.218624 68.4654 0.558782 171.117 0.558782 180.188C0.558782 195.798 -0.121534 192.812 30.4548 193.039V193.001Z" fill="#2F408F" fill-opacity="0.74902"/>
<path fill-rule="evenodd" clip-rule="evenodd" d="M35.4439 176.711L28.5273 192.963H52.9809C53.8502 192.547 53.8502 191.98 54.2659 191.035L64.2061 165.486C64.8864 163.785 67.1541 157.322 67.91 156.264L80.6092 188.465C81.025 189.675 81.8187 192.434 82.8392 193.001H108.502C107.482 190.091 106.083 187.105 104.798 184.119C97.6171 166.469 89.8313 148.516 82.688 130.979C82.0832 129.429 81.4029 127.917 80.7982 126.443C80.1935 125.083 79.5132 122.399 78.5683 122.248H57.8187C57.1384 124.365 55.9289 126.859 55.0596 129.051L46.5935 149.347C45.1951 152.749 35.5195 175.313 35.4439 176.787V176.711Z" fill="#2F408F"/>
<path fill-rule="evenodd" clip-rule="evenodd" d="M145.126 193.001C145.92 190.394 147.545 187.181 148.565 184.573L151.853 176.409C151.853 176.258 151.929 176.258 151.929 176.183L174.417 122.211H149.964C148.943 122.438 146.335 130.148 145.995 131.017L135.035 158.948L122.335 126.746C121.92 125.537 121.126 122.778 120.105 122.211H94.4424C95.4629 125.121 96.8613 128.107 98.1463 131.093C99.3558 134.154 100.49 136.913 101.775 139.899L120.257 184.233C120.672 185.291 123.28 192.737 124.414 192.964H145.164L145.126 193.001Z" fill="#2F408F"/>
<path fill-rule="evenodd" clip-rule="evenodd" d="M163.041 225.846L152.08 208.838H147.355V235.219H152.08L151.815 216.624C152.42 217.039 151.815 216.624 152.42 217.115C152.496 217.266 152.685 217.455 152.836 217.606L154.952 220.932C156.54 223.54 161.944 232.838 162.852 235.257H167.387V208.876H162.852C161.907 213.562 163.343 221.008 163.003 225.884L163.041 225.846Z" fill="#2F408F"/>
<path fill-rule="evenodd" clip-rule="evenodd" d="M45.0057 213.146C50.486 211.445 52.338 215.262 52.4136 219.798C52.4136 224.257 53.0939 229.511 49.1254 230.947C43.8341 232.799 41.7175 228.831 41.7175 224.409C41.6419 219.949 40.9616 214.393 45.0057 213.146ZM36.9175 227.243C37.4089 230.72 39.0341 233.139 41.453 234.462C45.4971 236.654 55.0215 236.805 56.949 228.226C57.4404 225.958 57.4404 219.155 57.1002 216.736C55.5884 206.305 39.4876 205.02 37.0687 215.942C36.5774 217.983 36.5774 225.089 36.9175 227.281V227.243Z" fill="#2F408F"/>
<path fill-rule="evenodd" clip-rule="evenodd" d="M19.4186 219.61H9.13829V208.838H4.2627V235.219H9.13829V224.145H19.4186V235.219H24.2942V208.838H19.4942L19.4186 219.61Z" fill="#2F408F"/>
<path fill-rule="evenodd" clip-rule="evenodd" d="M88.8482 208.838H84.1238C82.3474 216.85 87.412 231.099 79.1726 231.25C70.4041 231.402 75.8088 217.569 73.9569 208.838H69.2325C68.7411 211.257 68.9679 223.654 69.1569 226.639C69.497 232.384 72.7852 235.521 78.9081 235.635C85.0687 235.71 88.4325 232.498 88.8482 226.904C89.1128 223.994 89.264 211.295 88.8482 208.876V208.838Z" fill="#2F408F"/>
<path fill-rule="evenodd" clip-rule="evenodd" d="M199.249 233.593V220.743H190.405V224.711L194.713 224.787L194.864 230.607C185.113 232.308 184.773 229.058 184.773 220.667C184.773 217.417 185.189 214.582 187.721 213.373C191.009 211.823 194.298 213.599 197.132 214.166L198.568 210.047C193.768 208.988 189.46 206.985 184.433 209.896C180.313 212.314 179.784 216.434 179.784 222.368C179.784 236.125 188.213 237.902 199.249 233.631V233.593Z" fill="#2F408F"/>
<path fill-rule="evenodd" clip-rule="evenodd" d="M100.829 229.738L99.582 233.555C101.925 235.747 110.014 236.163 113.491 234.689C117.043 233.139 119.198 227.47 116.439 223.539C113.491 219.344 107.519 220.062 105.667 217.643C103.891 215.451 105.516 213.108 108.124 212.881C111.147 212.541 112.773 213.599 115.191 214.166L116.628 210.273C113.528 208.421 106.121 207.665 103.059 209.933C99.6198 212.427 98.9395 218.172 102.114 221.271C105.818 224.9 112.206 223.464 112.621 227.583C112.886 230.569 110.921 231.287 108.086 231.401C104.798 231.401 103.551 230.418 100.829 229.775V229.738Z" fill="#2F408F"/>
<path fill-rule="evenodd" clip-rule="evenodd" d="M128.949 235.219L133.825 235.143L133.636 208.838H128.949V235.219Z" fill="#2F408F"/>
  </symbol>
  <symbol xmlns="http://www.w3.org/2000/svg" fill="currentColor" viewBox="0 0 16 16" id="menu.close">
    <path d="M14 1a1 1 0 0 1 1 1v12a1 1 0 0 1-1 1H2a1 1 0 0 1-1-1V2a1 1 0 0 1 1-1h12zM2 0a2 2 0 0 0-2 2v12a2 2 0 0 0 2 2h12a2 2 0 0 0 2-2V2a2 2 0 0 0-2-2H2z"></path>
    <path d="M4.646 4.646a.5.5 0 0 1 .708 0L8 7.293l2.646-2.647a.5.5 0 0 1 .708.708L8.707 8l2.647 2.646a.5.5 0 0 1-.708.708L8 8.707l-2.646 2.647a.5.5 0 0 1-.708-.708L7.293 8 4.646 5.354a.5.5 0 0 1 0-.708z"></path>
  </symbol>
  <symbol xmlns="http://www.w3.org/2000/svg" fill="currentColor" viewBox="0 0 16 16" id="menu.open">
    <path fill-rule="evenodd" d="M2.5 12a.5.5 0 0 1 .5-.5h10a.5.5 0 0 1 0 1H3a.5.5 0 0 1-.5-.5zm0-4a.5.5 0 0 1 .5-.5h10a.5.5 0 0 1 0 1H3a.5.5 0 0 1-.5-.5zm0-4a.5.5 0 0 1 .5-.5h10a.5.5 0 0 1 0 1H3a.5.5 0 0 1-.5-.5z"></path>
  </symbol>
</svg>